<?xml version="1.0" encoding="utf-8"?>
<!-- Generator: Adobe Illustrator 24.3.0, SVG Export Plug-In . SVG Version: 6.00 Build 0)  -->
<svg version="1.1" id="Layer_1" xmlns="http://www.w3.org/2000/svg" xmlns:xlink="http://www.w3.org/1999/xlink" x="0px" y="0px"
	 viewBox="0 0 449 449" style="enable-background:new 0 0 449 449;" xml:space="preserve">
<style type="text/css">
	.st0{fill:#FFFFFF;stroke:#000000;stroke-width:8;stroke-miterlimit:10;}
	.st1{fill:none;stroke:#000000;stroke-width:8;stroke-miterlimit:10;}
</style>
<g>
	<polyline class="st0" points="260.5,224.5 296.5,188.5 296.5,98.84 224.5,26.84 152.5,98.84 152.5,188.5 224.5,260.5 224.5,260.52 
		224.5,350.17 	"/>
	<polyline class="st0" points="188.5,224.5 152.5,260.5 152.5,350.16 224.5,422.16 296.5,350.16 296.5,260.5 224.5,188.5 
		224.5,98.84 	"/>
</g>
<g>
	<polyline class="st1" points="260.5,224.5 296.5,188.5 296.5,98.84 224.5,26.84 152.5,98.84 152.5,188.5 224.5,260.5 224.5,260.52 
		224.5,350.17 	"/>
	<polyline class="st1" points="188.5,224.5 152.5,260.5 152.5,350.16 224.5,422.16 296.5,350.16 296.5,260.5 224.5,188.5 
		224.5,98.84 	"/>
</g>
</svg>
